<?xml version="1.0" encoding="utf-8"?>
<!-- Generator: Adobe Illustrator 16.0.0, SVG Export Plug-In . SVG Version: 6.00 Build 0)  -->
<!DOCTYPE svg PUBLIC "-//W3C//DTD SVG 1.1//EN" "http://www.w3.org/Graphics/SVG/1.1/DTD/svg11.dtd">
<svg version="1.1" id="Layer_1" xmlns="http://www.w3.org/2000/svg" xmlns:xlink="http://www.w3.org/1999/xlink" x="0px" y="0px"
	 width="140.25px" height="139.5px" viewBox="0 0 140.25 139.5" enable-background="new 0 0 140.25 139.5" xml:space="preserve">
<g>
	<path fill="#0E0F0F" d="M34.556,65.323c-0.922-0.647-1.521-1.306-1.331-2.553c0.083-0.54,0.1-0.977,0.595-1.273
		c0.211-0.123,0.389-0.291,0.577-0.445c1.354-1.106,1.472-1.691,0.613-3.173c-1.576-2.733-1.574-2.73-4.539-1.636
		c-0.232,0.084-0.438,0.205-0.75,0.042c-1.115-0.575-2.054-1.241-1.941-2.691c0.009-0.106-0.014-0.218-0.028-0.322
		c-0.179-0.999-0.832-1.554-1.844-1.566c-0.626-0.01-1.247-0.003-1.869,0c-1.365,0-1.964,0.455-2.104,1.798
		c-0.121,1.188-0.424,2.13-1.681,2.607c-0.434,0.165-0.742,0.266-1.175,0.085c-0.669-0.271-1.31-0.65-2.282-0.64
		c-0.442-0.01-0.925,0.292-1.253,0.843c-0.385,0.651-0.773,1.301-1.134,1.962c-0.479,0.885-0.338,1.641,0.434,2.318
		c0.424,0.373,0.88,0.713,1.321,1.072c0.168,0.135,0.303,0.259,0.316,0.525c0.091,1.839,0.1,1.839-1.409,3.068
		c-0.103,0.084-0.209,0.171-0.306,0.265c-0.709,0.696-0.816,1.385-0.335,2.265c0.347,0.641,0.706,1.272,1.085,1.895
		c0.51,0.836,1.224,1.101,2.14,0.809c0.385-0.124,0.766-0.27,1.14-0.417c1.33-0.517,2.828,0.379,2.984,1.795
		c0.244,2.176,0.7,2.596,2.857,2.596c0.164,0,0.323,0,0.489,0c2.012,0,2.435-0.358,2.762-2.342c0.039-0.235,0.018-0.492,0.082-0.724
		c0.074-0.241,0.022-0.538,0.32-0.702c0.99-0.557,1.937-1.335,3.135-0.433c0.164,0.123,0.395,0.154,0.602,0.225
		c0.928,0.292,1.639,0.038,2.148-0.792c0.322-0.527,0.619-1.073,0.928-1.613C35.827,66.905,35.734,66.153,34.556,65.323z
		 M33.45,67.084c-0.123,0.526-0.519,0.994-0.806,1.477c-0.153,0.259-0.357,0.062-0.498,0.008c-0.783-0.287-1.539-0.804-2.329-0.865
		c-0.829-0.066-1.278,1.027-2.091,1.196c-1.26,0.263-1.65,1.063-1.631,2.223c0.004,0.076-0.047,0.152-0.061,0.236
		c-0.24,1.305-0.477,1.453-1.837,1.272c-0.441-0.059-0.417-0.356-0.461-0.635c-0.123-0.688-0.265-1.383-0.306-2.082
		c-0.025-0.419-0.249-0.546-0.566-0.646c-0.891-0.271-1.689-0.715-2.356-1.367c-0.31-0.302-0.568-0.298-0.933-0.135
		c-0.635,0.286-1.301,0.515-1.945,0.786c-0.346,0.146-0.551,0.105-0.763-0.255c-0.779-1.303-0.798-1.291,0.408-2.247
		c0.084-0.068,0.167-0.143,0.257-0.192c0.84-0.474,1.21-1.092,0.874-2.104c-0.183-0.55-0.09-1.184,0.079-1.767
		c0.165-0.562,0.006-0.977-0.509-1.282c-0.279-0.166-0.511-0.399-0.764-0.6c-1.182-0.934-1.192-1.102-0.253-2.335
		c0.208-0.276,0.362-0.208,0.604-0.106c0.67,0.281,1.349,0.533,2.025,0.801c0.311,0.122,0.564,0.176,0.86-0.109
		c0.71-0.68,1.555-1.167,2.499-1.442c0.313-0.092,0.429-0.239,0.464-0.556c0.076-0.67,0.223-1.33,0.293-2
		c0.054-0.497,0.177-0.757,0.777-0.742c1.315,0.039,1.395-0.009,1.542,1.307c0.132,1.232,0.42,2.227,1.836,2.462
		c0.197,0.033,0.428,0.168,0.549,0.325c0.874,1.15,1.877,0.756,2.896,0.28c0.243-0.114,0.518-0.166,0.747-0.303
		c0.414-0.248,0.616-0.101,0.799,0.291c0.184,0.391,0.425,0.748,0.592,1.036c0.074,0.214,0.017,0.298-0.074,0.372
		c-0.082,0.069-0.158,0.152-0.253,0.206c-1.477,0.833-2.352,1.952-1.782,3.756c-0.579,1.436,0.269,2.206,1.319,2.918
		C32.968,66.486,33.547,66.667,33.45,67.084z"/>
	<path fill="#0E0F0F" d="M24.803,59.449c-2.028,0.016-3.653,1.649-3.651,3.668c0,2.021,1.69,3.706,3.708,3.699
		c2.019-0.009,3.712-1.722,3.683-3.725C28.515,61.034,26.868,59.43,24.803,59.449z M24.841,65.41
		c-1.243-0.001-2.294-1.069-2.279-2.312c0.013-1.251,1.004-2.236,2.258-2.245c1.286-0.007,2.306,0.988,2.31,2.258
		C27.133,64.357,26.083,65.413,24.841,65.41z"/>
</g>
<rect x="67.049" y="105.697" fill="none" stroke="#000000" stroke-width="2" stroke-miterlimit="10" width="27.869" height="12.295"/>
<line fill="none" stroke="#000000" stroke-width="4" stroke-miterlimit="10" x1="105.891" y1="119.318" x2="56.081" y2="119.318"/>
<line fill="none" stroke="#000000" stroke-width="2" stroke-miterlimit="10" x1="137.439" y1="93.938" x2="80.697" y2="93.938"/>
<polygon fill="none" stroke="#000000" stroke-width="2" stroke-miterlimit="10" points="105.288,74.534 56.684,74.534 
	80.984,30.782 "/>
<polygon points="104.584,53.305 114.297,58.275 114.297,57.361 102.65,51.398 114.297,73.334 114.297,71.598 "/>
<polygon points="119.861,66.171 125.67,63.184 115.924,58.194 115.924,59.108 123.887,63.187 118.488,65.963 126.866,74.214 
	125.715,75.385 117.393,67.072 115.924,70.054 115.924,71.9 117.618,68.45 125.719,76.539 128.018,74.205 "/>
<polygon points="114.749,72.45 114.297,71.598 114.297,73.334 114.775,74.238 115.924,71.9 115.924,70.054 "/>
<polygon points="115.924,59.108 115.924,58.194 114.297,57.361 114.297,58.275 "/>
<polygon fill="none" points="71.923,93.882 62.306,91.309 25.973,91.309 25.973,96.802 62.291,96.8 "/>
<path fill="none" d="M4.621,91.309c-0.273,0.004-1.61,0.146-1.61,2.621c0,2.711,1.658,2.875,1.675,2.877l18.786-0.002v-5.496H4.621
	L4.621,91.309z"/>
<path fill="#0E0F0F" d="M25.224,76.266c-0.625,0-1.207-0.064-2.21-0.186v13.597H26.7v-13.45
	C25.73,76.25,25.482,76.266,25.224,76.266z"/>
<path fill="#0E0F0F" d="M134.746,32.088h-18.822v-9.634H46.042v9.634H27.22c-2.489,0-4.515,1.949-4.185,4.346v13.767l3.7-0.119
	V36.436c0-0.151,0.208-0.32,0.485-0.32h18.822v49.962h69.881V71.9l-1.147,2.338l-1.295-2.618v12.013H48.487V24.899h64.994v32.462
	l2.442,0.833V36.116h18.822c0.278,0,0.487,0.169,0.487,0.32v66.137c0,0.149-0.209,0.317-0.487,0.317H27.22
	c-0.277,0-0.484-0.168-0.484-0.317v-4.906h-3.694v4.906c-0.334,2.396,1.691,4.347,4.18,4.347H134.75c2.488,0,4.516-1.95,4.199-4.347
	V36.434C139.26,34.038,137.232,32.088,134.746,32.088z"/>
<path d="M4.687,96.805c-0.017-0.003-1.675-0.164-1.675-2.875c0-2.478,1.337-2.617,1.611-2.621h18.851V89.68H4.615
	c-0.131,0-3.231,0.047-3.231,4.25c0,3.36,2.077,4.413,3.239,4.502h18.852v-1.625H4.687V96.805z"/>
<polygon points="62.306,91.309 70.869,93.882 62.291,96.8 25.973,96.802 25.973,98.432 62.533,98.432 75.415,93.783 62.518,89.68 
	25.973,89.68 25.973,91.309 "/>
<rect x="23.471" y="96.802" width="2.5" height="1.63"/>
<rect x="23.471" y="89.68" width="2.5" height="1.629"/>
<line fill="none" stroke="#000000" stroke-width="2" stroke-miterlimit="10" x1="61.138" y1="94.059" x2="16.992" y2="94.059"/>
<line fill="none" stroke="#000000" stroke-width="2" stroke-miterlimit="10" x1="16.652" y1="97.71" x2="16.652" y2="90.794"/>
<circle fill="none" stroke="#000000" stroke-miterlimit="10" cx="52.423" cy="28.56" r="1.619"/>
<circle fill="none" stroke="#000000" stroke-miterlimit="10" cx="57.713" cy="28.56" r="1.619"/>
<circle fill="none" stroke="#000000" stroke-miterlimit="10" cx="63.001" cy="28.56" r="1.619"/>
</svg>
