<?xml version="1.0" encoding="utf-8"?>
<!-- Generator: Adobe Illustrator 16.0.0, SVG Export Plug-In . SVG Version: 6.00 Build 0)  -->
<!DOCTYPE svg PUBLIC "-//W3C//DTD SVG 1.1//EN" "http://www.w3.org/Graphics/SVG/1.1/DTD/svg11.dtd">
<svg version="1.1" id="Layer_1" xmlns="http://www.w3.org/2000/svg" xmlns:xlink="http://www.w3.org/1999/xlink" x="0px" y="0px"
	 width="140.25px" height="139.5px" viewBox="0 0 140.25 139.5" enable-background="new 0 0 140.25 139.5" xml:space="preserve">
<g>
	<path d="M66.395,51.174H60.5l-1.198,3.516h-2.545l5.533-15.057h2.378l5.468,15.057h-2.554L66.395,51.174z M61.226,49.076h4.457
		L63.5,42.647h-0.062L61.226,49.076z"/>
	<path d="M71.889,54.69V39.633h4.879c1.908,0,3.461,0.597,4.656,1.79c1.196,1.193,1.797,2.727,1.797,4.602v2.285
		c0,1.882-0.601,3.415-1.797,4.6c-1.197,1.186-2.748,1.779-4.656,1.779L71.889,54.69L71.889,54.69z M74.398,41.651v11.023h2.295
		c1.244,0,2.229-0.408,2.941-1.22c0.713-0.814,1.067-1.864,1.067-3.149V46c0-1.272-0.356-2.316-1.067-3.127
		c-0.714-0.816-1.697-1.22-2.941-1.22h-2.295V41.651z"/>
</g>
<line fill="none" stroke="#000000" stroke-width="4" stroke-miterlimit="10" x1="43.136" y1="89.176" x2="96.842" y2="89.176"/>
<path d="M101.986,13.581l-8.227-5.23V8.315h-4.18v0.018h-0.027l0.027,0.018v5.23H75.171l-8.228-5.23V8.315h-4.181v0.018h-0.027
	l0.027,0.018v5.23h-14.41l-8.227-5.23V8.315h-4.181v0.018h-0.027l0.027,0.018v5.23H6.912v70.286h126.135V13.581H101.986z
	 M129.385,80.119H10.592V17.328h25.354v4.614h-1.604v2.09h8.828v-2.09h-3.043v-4.181h0.02v-4.18h-0.02v-2.573l4.2,2.671v3.648
	h18.436v4.614h-1.604v2.09h8.828v-2.09h-3.043v-4.181h0.02v-4.18h-0.02v-2.573l4.201,2.671v3.648H89.58v4.614h-1.604v2.09h8.828
	v-2.09h-3.043v-4.181h0.02v-4.18h-0.02v-2.572l4.199,2.67v3.648h31.424V80.119L129.385,80.119z"/>
<line fill="none" stroke="#000000" stroke-width="4" stroke-miterlimit="10" x1="73.299" y1="133.07" x2="73.299" y2="89.266"/>
<line fill="none" stroke="#000000" stroke-width="4" stroke-miterlimit="10" x1="66.681" y1="133.07" x2="66.681" y2="101.544"/>
<line fill="none" stroke="#000000" stroke-width="4" stroke-miterlimit="10" x1="85.229" y1="132.287" x2="54.749" y2="132.287"/>
</svg>
