<?xml version="1.0" encoding="utf-8"?>
<!-- Generator: Adobe Illustrator 16.0.0, SVG Export Plug-In . SVG Version: 6.00 Build 0)  -->
<!DOCTYPE svg PUBLIC "-//W3C//DTD SVG 1.1//EN" "http://www.w3.org/Graphics/SVG/1.1/DTD/svg11.dtd">
<svg version="1.1" id="Layer_1" xmlns="http://www.w3.org/2000/svg" xmlns:xlink="http://www.w3.org/1999/xlink" x="0px" y="0px"
	 width="168px" height="114.667px" viewBox="213.139 362.778 168 114.667" enable-background="new 213.139 362.778 168 114.667"
	 xml:space="preserve">
<g>
	<path fill="#0E0F0F" d="M253.572,415.033c-1.13-0.795-1.866-1.601-1.632-3.134c0.1-0.663,0.121-1.198,0.73-1.564
		c0.257-0.15,0.477-0.356,0.708-0.544c1.663-1.357,1.805-2.075,0.752-3.895c-1.935-3.355-1.932-3.351-5.572-2.01
		c-0.284,0.104-0.537,0.252-0.92,0.053c-1.368-0.708-2.521-1.523-2.381-3.302c0.011-0.131-0.017-0.268-0.036-0.396
		c-0.22-1.224-1.022-1.907-2.263-1.921c-0.767-0.011-1.531-0.004-2.295-0.001c-1.674,0.001-2.411,0.559-2.583,2.207
		c-0.148,1.46-0.519,2.617-2.063,3.202c-0.533,0.203-0.91,0.326-1.443,0.106c-0.82-0.335-1.608-0.8-2.801-0.786
		c-0.542-0.014-1.137,0.358-1.539,1.036c-0.473,0.796-0.948,1.596-1.391,2.408c-0.588,1.085-0.415,2.014,0.533,2.845
		c0.521,0.458,1.081,0.876,1.622,1.316c0.206,0.166,0.371,0.32,0.387,0.643c0.112,2.259,0.122,2.259-1.73,3.766
		c-0.128,0.104-0.258,0.211-0.376,0.327c-0.87,0.852-1.002,1.698-0.412,2.779c0.427,0.787,0.868,1.563,1.332,2.325
		c0.625,1.029,1.502,1.353,2.629,0.992c0.471-0.152,0.937-0.33,1.398-0.51c1.633-0.636,3.471,0.464,3.664,2.202
		c0.299,2.67,0.859,3.186,3.507,3.186c0.2,0,0.398,0,0.599,0c2.47,0,2.99-0.439,3.39-2.873c0.048-0.293,0.022-0.605,0.102-0.889
		c0.09-0.299,0.028-0.66,0.392-0.863c1.215-0.684,2.377-1.639,3.848-0.529c0.202,0.151,0.487,0.193,0.74,0.273
		c1.14,0.361,2.01,0.049,2.636-0.973c0.396-0.647,0.759-1.319,1.14-1.979C255.133,416.975,255.018,416.05,253.572,415.033z
		 M252.216,417.194c-0.151,0.647-0.638,1.219-0.991,1.814c-0.188,0.317-0.438,0.075-0.612,0.01c-0.961-0.355-1.888-0.99-2.86-1.064
		c-1.016-0.079-1.569,1.263-2.568,1.469c-1.547,0.322-2.026,1.306-2.004,2.729c0.006,0.094-0.056,0.188-0.072,0.287
		c-0.294,1.605-0.586,1.787-2.256,1.566c-0.54-0.07-0.511-0.441-0.566-0.773c-0.151-0.85-0.324-1.701-0.375-2.558
		c-0.031-0.516-0.304-0.67-0.695-0.792c-1.095-0.331-2.075-0.879-2.892-1.677c-0.38-0.372-0.697-0.366-1.146-0.166
		c-0.779,0.352-1.596,0.632-2.387,0.964c-0.424,0.179-0.675,0.129-0.936-0.313c-0.956-1.596-0.978-1.584,0.499-2.757
		c0.104-0.083,0.206-0.175,0.317-0.237c1.031-0.582,1.486-1.339,1.072-2.584c-0.224-0.675-0.111-1.453,0.096-2.167
		c0.203-0.69,0.007-1.2-0.624-1.575c-0.341-0.203-0.628-0.49-0.938-0.736c-1.452-1.144-1.463-1.351-0.311-2.867
		c0.256-0.338,0.445-0.255,0.743-0.131c0.821,0.344,1.656,0.654,2.485,0.984c0.382,0.151,0.693,0.217,1.057-0.133
		c0.871-0.834,1.908-1.43,3.069-1.771c0.382-0.111,0.526-0.292,0.568-0.681c0.093-0.822,0.275-1.633,0.36-2.456
		c0.068-0.609,0.218-0.929,0.954-0.909c1.615,0.047,1.712-0.011,1.892,1.604c0.164,1.512,0.517,2.734,2.254,3.023
		c0.243,0.041,0.525,0.204,0.675,0.398c1.072,1.412,2.304,0.927,3.555,0.344c0.298-0.139,0.635-0.204,0.916-0.371
		c0.507-0.306,0.756-0.123,0.982,0.357c0.226,0.479,0.521,0.918,0.726,1.272c0.09,0.264,0.021,0.367-0.089,0.456
		c-0.103,0.086-0.196,0.187-0.311,0.252c-1.813,1.023-2.887,2.396-2.187,4.611c-0.709,1.763,0.33,2.708,1.619,3.583
		C251.624,416.46,252.336,416.684,252.216,417.194z"/>
	<path fill="#0E0F0F" d="M241.601,407.822c-2.49,0.021-4.484,2.025-4.482,4.503c0,2.479,2.076,4.547,4.553,4.541
		c2.476-0.011,4.557-2.114,4.521-4.574C246.156,409.768,244.136,407.798,241.601,407.822z M241.649,415.14
		c-1.526-0.002-2.817-1.313-2.797-2.838c0.014-1.536,1.233-2.745,2.772-2.755c1.577-0.01,2.83,1.213,2.835,2.77
		C244.462,413.848,243.174,415.143,241.649,415.14z"/>
</g>
<rect x="269.674" y="364.839" fill="none" width="81.781" height="10.762"/>
<rect x="269.674" y="378.671" fill="none" width="81.781" height="60.266"/>
<path d="M244.569,375.601c-2.538,0-4.604,1.974-4.604,4.399v16.192c0.86-0.262,1.809-0.412,2.854-0.412
	c0.075,0,0.143,0.008,0.216,0.01v-15.789c0-0.732,0.688-1.33,1.533-1.33h23.104v-3.07H244.569z"/>
<polygon points="269.674,364.839 351.454,364.839 351.454,375.601 353.454,375.601 353.454,362.839 267.674,362.839 
	267.674,375.601 269.674,375.601 "/>
<rect x="351.454" y="375.601" width="2" height="3.07"/>
<rect x="267.674" y="375.601" width="2" height="3.07"/>
<rect x="295.691" y="465.019" fill="none" stroke="#000000" stroke-width="2" stroke-miterlimit="10" width="29.745" height="11.4"/>
<line fill="none" stroke="#000000" stroke-width="2" stroke-miterlimit="10" x1="337.146" y1="476.421" x2="283.984" y2="476.421"/>
<line fill="none" stroke="#000000" stroke-width="2" stroke-miterlimit="10" x1="379.861" y1="450.587" x2="310.213" y2="450.587"/>
<polygon fill="none" stroke="#000000" stroke-width="2" stroke-miterlimit="10" points="340.396,426.769 280.734,426.769 
	310.566,373.061 "/>
<g>
	<polygon fill="none" points="355.254,417.607 365.471,427.81 366.883,426.375 356.6,416.246 363.225,412.837 353.454,407.834 
		353.454,421.268 	"/>
	<polygon fill="none" points="339.534,400.708 351.454,423.164 351.454,406.811 	"/>
	<polygon points="351.454,425.294 351.454,438.937 269.674,438.937 269.674,378.671 267.674,378.671 267.674,440.937 
		353.454,440.937 353.454,423.537 352.045,426.406 	"/>
	<polygon points="353.454,378.671 351.454,378.671 351.454,405.688 353.454,406.711 	"/>
	<polygon points="339.534,400.708 351.454,406.811 351.454,405.688 337.161,398.369 351.454,425.294 351.454,423.164 	"/>
	<polygon points="358.285,416.502 365.414,412.835 353.454,406.711 353.454,407.834 363.225,412.837 356.6,416.246 366.883,426.375 
		365.471,427.81 355.254,417.607 353.454,421.268 353.454,423.537 355.534,419.301 365.477,429.23 368.297,426.365 	"/>
	<polygon points="352.01,424.208 351.454,423.164 351.454,425.294 352.045,426.406 353.454,423.537 353.454,421.268 	"/>
	<polygon points="353.454,407.834 353.454,406.711 351.454,405.688 351.454,406.811 	"/>
</g>
<polygon fill="none" points="299.44,450.517 287.635,447.357 243.036,447.357 243.036,454.103 287.617,454.101 "/>
<path fill="none" d="M217.828,447.357c-0.336,0.004-1.976,0.178-1.976,3.219c0,3.328,2.035,3.527,2.055,3.529l22.06-0.002v-6.746
	H217.828L217.828,447.357z"/>
<path d="M243.036,428.847c-0.297,0.027-0.601,0.045-0.919,0.045c-0.767,0-1.482-0.082-2.15-0.227v16.691h3.069V428.847z"/>
<path d="M376.558,375.601h-23.104v3.07h23.104c0.846,0,1.534,0.598,1.534,1.33v81.182c0,0.732-0.69,1.33-1.534,1.33H244.569
	c-0.847,0-1.533-0.598-1.533-1.33v-5.082h-3.069v5.082c0,2.428,2.066,4.4,4.604,4.4h131.989c2.538,0,4.604-1.975,4.604-4.4v-81.182
	C381.162,377.575,379.096,375.601,376.558,375.601z"/>
<path d="M217.907,454.105c-0.021-0.002-2.055-0.201-2.055-3.529c0-3.041,1.64-3.215,1.976-3.219h22.139v-2H217.82
	c-0.162,0-3.967,0.061-3.967,5.219c0,4.125,2.549,5.416,3.976,5.525h22.14v-1.996H217.907z"/>
<polygon points="287.635,447.357 298.146,450.517 287.617,454.101 243.036,454.103 243.036,456.101 287.914,456.101 
	306.727,450.398 287.897,445.357 243.036,445.357 243.036,447.357 "/>
<rect x="239.967" y="454.103" width="3.069" height="1.998"/>
<rect x="239.967" y="445.357" width="3.069" height="2"/>
<line fill="none" stroke="#000000" stroke-width="2" stroke-miterlimit="10" x1="286.201" y1="450.732" x2="232.012" y2="450.732"/>
<line fill="none" stroke="#000000" stroke-width="2" stroke-miterlimit="10" x1="231.596" y1="455.216" x2="231.596" y2="446.726"/>
<circle fill="#FFFFFF" stroke="#000000" stroke-miterlimit="10" cx="275.506" cy="370.334" r="1.987"/>
<circle fill="#FFFFFF" stroke="#000000" stroke-miterlimit="10" cx="281.997" cy="370.334" r="1.987"/>
<circle fill="#FFFFFF" stroke="#000000" stroke-miterlimit="10" cx="288.489" cy="370.334" r="1.987"/>
</svg>
