<?xml version="1.0" encoding="utf-8"?>
<!-- Generator: Adobe Illustrator 16.0.0, SVG Export Plug-In . SVG Version: 6.00 Build 0)  -->
<!DOCTYPE svg PUBLIC "-//W3C//DTD SVG 1.1//EN" "http://www.w3.org/Graphics/SVG/1.1/DTD/svg11.dtd">
<svg version="1.1" id="Layer_1" xmlns="http://www.w3.org/2000/svg" xmlns:xlink="http://www.w3.org/1999/xlink" x="0px" y="0px"
	 width="170.417px" height="75.498px" viewBox="220.473 381.113 170.417 75.498"
	 enable-background="new 220.473 381.113 170.417 75.498" xml:space="preserve">
<g>
	<circle fill="#FFFFFF" stroke="#000000" stroke-width="4" stroke-miterlimit="10" cx="238.227" cy="438.885" r="15.667"/>
	<circle fill="#FFFFFF" stroke="#000000" stroke-width="4" stroke-miterlimit="10" cx="279.781" cy="405.02" r="15.667"/>
	<circle fill="#FFFFFF" stroke="#000000" stroke-width="4" stroke-miterlimit="10" cx="322.857" cy="433.575" r="15"/>
	<circle fill="#FFFFFF" stroke="#000000" stroke-width="4" stroke-miterlimit="10" cx="360.643" cy="401.645" r="15"/>
	<circle fill="#00AEEF" stroke="#000000" stroke-width="3" stroke-miterlimit="10" cx="279.781" cy="405.02" r="7.478"/>
	<circle fill="#FFF200" stroke="#000000" stroke-width="3" stroke-miterlimit="10" cx="238.227" cy="438.885" r="7.478"/>
	<circle fill="#6CBE45" stroke="#000000" stroke-width="3" stroke-miterlimit="10" cx="322.857" cy="433.575" r="7.478"/>
	
		<rect x="246.951" y="419.981" transform="matrix(-0.7542 0.6566 -0.6566 -0.7542 729.6141 568.6269)" fill="none" stroke="#000000" stroke-width="2" stroke-miterlimit="10" width="22.859" height="1.78"/>
	
		<rect x="290.472" y="418.074" transform="matrix(-0.7684 -0.64 0.64 -0.7684 265.7666 934.1048)" fill="none" stroke="#000000" stroke-width="2" stroke-miterlimit="10" width="22.856" height="1.781"/>
	
		<rect x="332.128" y="417.063" transform="matrix(-0.7252 0.6886 -0.6886 -0.7252 877.9057 485.5031)" fill="none" stroke="#000000" stroke-width="2" stroke-miterlimit="10" width="19.869" height="1.78"/>
	<polygon fill="#ED1C24" stroke="#000000" stroke-width="2" stroke-miterlimit="10" points="361.661,407.184 360.088,405.351 
		353.793,398.021 357.313,394.999 363.607,402.328 386.206,382.848 389.23,386.366 363.11,408.869 	"/>
</g>
</svg>
